<svg width="36" height="36" viewBox="0 0 36 36" fill="none" xmlns="http://www.w3.org/2000/svg">
<path d="M17.648 22.6984V31.5168C17.648 31.8549 17.5137 32.1791 17.2746 32.418C17.0357 32.6571 16.7115 32.7914 16.3734 32.7914C16.0354 32.7914 15.7112 32.6571 15.4721 32.418C15.2331 32.1791 15.0988 31.8549 15.0988 31.5168V22.7106C15.4537 22.9698 15.8791 23.1144 16.3185 23.1253C16.7973 23.139 17.2666 22.9883 17.648 22.6984ZM28.5033 20.1492C28.1798 20.1492 27.8695 20.2778 27.6408 20.5065C27.4121 20.7352 27.2836 21.0455 27.2836 21.3689V22.9058C27.2836 23.2439 27.4178 23.5681 27.6569 23.807C27.8958 24.0461 28.22 24.1803 28.5581 24.1803C28.8962 24.1803 29.2204 24.0461 29.4594 23.807C29.6984 23.5681 29.8327 23.2439 29.8327 22.9058V21.4299C29.8422 21.255 29.8139 21.0801 29.7498 20.9172C29.6856 20.7542 29.5872 20.6069 29.461 20.4854C29.3348 20.3639 29.184 20.271 29.0188 20.2129C28.8536 20.155 28.6777 20.1333 28.5033 20.1492ZM12.3301 26.0404C11.8912 26.0272 11.4663 25.8828 11.1104 25.6257V34.4685C11.1104 34.8082 11.2453 35.134 11.4855 35.3741C11.7257 35.6143 12.0514 35.7492 12.3911 35.7492C12.7307 35.7492 13.0565 35.6143 13.2966 35.3741C13.5368 35.134 13.6717 34.8082 13.6717 34.4685V25.6867C13.2735 25.9441 12.8035 26.0681 12.3301 26.0404ZM24.527 17.5025C24.3618 17.4942 24.1966 17.5197 24.0415 17.5773C23.8865 17.6348 23.7447 17.7234 23.6248 17.8374C23.5051 17.9516 23.4098 18.0888 23.3447 18.2409C23.2797 18.393 23.2461 18.5568 23.2464 18.7222V25.5159C23.2464 25.8556 23.3813 26.1814 23.6214 26.4215C23.8617 26.6617 24.1874 26.7966 24.527 26.7966C24.8667 26.7966 25.1925 26.6617 25.4327 26.4215C25.6728 26.1814 25.8077 25.8556 25.8077 25.5159V18.8076C25.8175 18.6316 25.7889 18.4556 25.7241 18.2916C25.6592 18.1277 25.5596 17.9798 25.4321 17.858C25.3045 17.7363 25.1521 17.6436 24.9854 17.5865C24.8187 17.5293 24.6415 17.509 24.4661 17.5269L24.527 17.5025ZM20.4777 20.1127C20.0182 20.1095 19.571 19.9647 19.197 19.698V28.5651C19.197 28.9048 19.3319 29.2306 19.572 29.4708C19.8123 29.7109 20.138 29.8458 20.4777 29.8458C20.8173 29.8458 21.143 29.7109 21.3833 29.4708C21.6234 29.2306 21.7583 28.9048 21.7583 28.5651V19.7102C21.3714 19.9984 20.8991 20.1486 20.4167 20.137L20.4777 20.1127ZM9.56136 26.9064V2.13432C9.55816 1.83236 9.43594 1.54388 9.22128 1.33149C9.00661 1.1191 8.71682 0.999988 8.41485 1H8.14652C7.84454 0.999988 7.55475 1.1191 7.34009 1.33149C7.12542 1.54388 7.00321 1.83236 7 2.13432V26.9064C7 27.2104 7.1208 27.5021 7.33581 27.7171C7.55082 27.9321 7.84244 28.0529 8.14652 28.0529H8.41485C8.71893 28.0529 9.01055 27.9321 9.22556 27.7171C9.44058 27.5021 9.56136 27.2104 9.56136 26.9064ZM12.4642 25.1012H12.1959C11.8918 25.1012 11.6002 24.9805 11.3852 24.7654C11.1702 24.5504 11.0494 24.2588 11.0494 23.9547V5.08598C11.0526 4.78404 11.1748 4.49553 11.3895 4.28316C11.6041 4.07077 11.8939 3.95165 12.1959 3.95167H12.4642C12.7662 3.95165 13.056 4.07077 13.2707 4.28316C13.4853 4.49553 13.6075 4.78404 13.6108 5.08598V23.9791C13.6108 24.2832 13.49 24.5748 13.275 24.7898C13.0599 25.0049 12.7683 25.1256 12.4642 25.1256V25.1012ZM16.5014 22.1983H16.2209C15.9201 22.1983 15.6316 22.0788 15.4188 21.8661C15.2061 21.6534 15.0866 21.3649 15.0866 21.064V8.01326C15.085 7.86327 15.1132 7.71446 15.1694 7.57542C15.2256 7.43639 15.3089 7.30991 15.4144 7.20328C15.5199 7.09666 15.6456 7.01201 15.784 6.95424C15.9224 6.89648 16.0709 6.86673 16.2209 6.86674H16.5014C16.8034 6.86996 17.0919 6.99216 17.3042 7.20683C17.5167 7.4215 17.6358 7.71128 17.6358 8.01326V21.064C17.6358 21.3649 17.5162 21.6534 17.3035 21.8661C17.0908 22.0788 16.8023 22.1983 16.5014 22.1983ZM20.5386 19.2101H20.2825C19.9805 19.2101 19.6907 19.091 19.476 18.8786C19.2614 18.6662 19.1392 18.3778 19.136 18.0758V11.0503C19.126 10.8937 19.1482 10.7367 19.2014 10.589C19.2544 10.4414 19.3374 10.3062 19.4448 10.1919C19.5523 10.0775 19.682 9.98648 19.8262 9.92428C19.9703 9.8622 20.1255 9.83024 20.2825 9.83061H20.5508C20.8549 9.83061 21.1465 9.95136 21.3616 10.1664C21.5766 10.3814 21.6973 10.6731 21.6973 10.9771V18.0514C21.6989 18.203 21.6705 18.3534 21.6136 18.4939C21.5567 18.6344 21.4726 18.7622 21.3658 18.87C21.2592 18.9777 21.1324 19.0632 20.9924 19.1216C20.8525 19.1801 20.7024 19.2101 20.5508 19.2101H20.5386ZM24.588 16.5877H24.3197C24.0156 16.5877 23.724 16.467 23.509 16.2519C23.2939 16.0369 23.1732 15.7453 23.1732 15.4412V13.6239C23.1764 13.3219 23.2986 13.0334 23.5132 12.8211C23.7279 12.6086 24.0177 12.4895 24.3197 12.4895H24.588C24.89 12.4895 25.1798 12.6086 25.3945 12.8211C25.6092 13.0334 25.7314 13.3219 25.7345 13.6239V15.4412C25.7345 15.7432 25.6155 16.033 25.403 16.2477C25.1907 16.4623 24.9022 16.5846 24.6002 16.5877H24.588Z" fill="#99D52A"/>
</svg>
